<svg width="500" height="200" viewBox="0 0 500 200" xmlns="http://www.w3.org/2000/svg">
  <path d="M120.5 158.7c-18.3 0-33.8-6.2-46.5-18.6-12.7-12.4-19-28.1-19-47.1 0-22.5 8.5-40.1 25.6-52.8 17.1-12.7 38.4-19 63.8-19 18.6 0 34.5 4.8 47.8 14.5 13.3 9.7 19.9 22.4 19.9 38 0 18-7.9 33.2-23.8 45.6-15.9 12.4-36.1 18.6-60.6 18.6-16.2 0-30.7-3.4-43.3-10.3-12.6-6.9-18.9-16.3-18.9-28.2 0-7.2 2.6-13.3 7.9-18.2 5.3-4.9 12.1-7.3 20.3-7.3 10.3 0 18.6 4 25 12s9.6 18 9.6 30.2c0 10.6-3.1 19.1-9.3 25.6-6.2 6.5-15.2 9.7-27.1 9.7-5.6 0-10.6-1.1-14.9-3.3-4.3-2.2-6.5-5.6-6.5-10.1 0-6.2 3.3-12.4 9.9-18.6 6.6-6.2 15.5-11.5 26.7-15.9 11.2-4.4 23.9-6.6 38.2-6.6 13.6 0 24.4 3.1 32.4 9.3 8 6.2 12.1 14.5 12.1 25 0 14.7-5.6 27.2-16.9 37.6-11.3 10.4-26.1 15.6-44.4 15.6zm102.9-3.1c-3.6 0-6.5-1.1-8.6-3.3-2.1-2.2-3.1-5.1-3.1-8.6 0-3.6 1-6.5 3.1-8.7 2.1-2.2 4.9-3.3 8.6-3.3 3.6 0 6.5 1.1 8.7 3.3 2.2 2.2 3.3 5.1 3.3 8.7 0 3.6-1.1 6.5-3.3 8.6-2.2 2.2-5.1 3.3-8.7 3.3zm48.9-63.8c0 17.8-2.3 33.1-7 46-4.7 12.9-11.9 19.4-21.8 19.4-4.7 0-8.4-2.1-11.2-6.2-2.8-4.1-4.2-9.9-4.2-17.4 0-13.6 2.5-25.6 7.6-36.1 5.1-10.5 12.3-15.8 21.8-15.8 6.6 0 10.7 3.2 12.4 9.5 1.7 6.3 2.5 14.1 2.5 23.5zm3.3-24c0 11.9 1.7 21.9 5 30 3.3 8.1 7.4 12.2 12.4 12.2 4.7 0 8.4-3.8 11.2-11.5 2.8-7.7 4.2-17.8 4.2-30.3 0-11.6-1.5-21.4-4.5-29.4-3-8-7.1-12-12.3-12-4.7 0-8.5 3.9-11.5 11.7-3 7.8-4.5 17.6-4.5 29.3zm73.6 63.8c-7.6 0-14.4-2.5-20.4-7.6-6-5.1-10.4-12-13.3-20.6l-13.1-40.6c-1.4-4.3-3.5-6.5-6.2-6.5-4.7 0-9.3 5.1-13.9 15.4l-15.8 34.2c-3.3 7.1-5 13-5 17.7 0 3.6.9 6.2 2.6 7.9 1.7 1.7 4.3 2.5 7.9 2.5v3.6h-31.9v-3.6c3.6 0 6.3-.8 7.9-2.5 1.6-1.7 2.4-4.3 2.4-7.9 0-4.7-2.1-11.3-6.2-19.7L276.2 94c-3.1-6.4-5.6-12.3-7.5-17.7-1.9-5.4-2.8-11.3-2.8-17.7 0-9.3 2.5-16.4 7.4-21.3 4.9-4.9 11.5-7.3 19.8-7.3 6.6 0 11.7 1.7 15.3 5 3.6 3.3 6.5 8.2 8.6 14.7l26.5 82.3c2.3 7.1 4.5 12.2 6.6 15.4 2.1 3.2 5.3 4.8 9.7 4.8 6.2 0 11.7-3.6 16.4-10.7 4.7-7.1 8.7-16.9 11.9-29.4l19.8-77.2c1.4-5.4 2.1-10.8 2.1-16.2 0-3.6-.8-6.2-2.5-7.9-1.7-1.7-4.3-2.5-7.9-2.5v-3.6h28.2v3.6c-3.6 0-6.2.8-7.9 2.5-1.7 1.7-2.5 4.3-2.5 7.9 0 5.4-1.7 12-5 19.8l-34.7 81.2c-3.6 8.3-7.1 14.7-10.5 19.2-3.4 4.5-8.4 6.8-15 6.8zm98.7 1.4c-3.6 0-6.5-1.1-8.6-3.3-2.1-2.2-3.1-5.1-3.1-8.6 0-3.6 1-6.5 3.1-8.7 2.1-2.2 4.9-3.3 8.6-3.3 3.6 0 6.5 1.1 8.7 3.3 2.2 2.2 3.3 5.1 3.3 8.7 0 3.6-1.1 6.5-3.3 8.6-2.2 2.2-5.1 3.3-8.7 3.3zm64.6-1.4c-10.3 0-18.5-3.3-24.6-9.9-6.1-6.6-9.1-15.4-9.1-26.4 0-9.5 2-17.4 6-23.8 4-6.4 8.9-9.6 14.7-9.6 5.6 0 10.2 2.5 13.8 7.5 3.6 5 5.4 11.8 5.4 20.4 0 12.6-2.6 22.6-7.7 30.2-5.1 7.7-12.8 11.5-23.1 11.5zm6.8-30.4c0-14.1-3.7-21.1-11.1-21.1-3.6 0-6.6 2.4-9.2 7.2-2.6 4.8-3.8 11.7-3.8 20.7 0 7.2 1.2 13.2 3.6 18 2.4 4.8 5.8 7.2 10.2 7.2 3.3 0 6.3-2.2 8.9-6.6 2.6-4.3 3.9-11.2 3.9-20.5zm78.2 30.4c-10.3 0-19.1-3.5-26.4-10.4-7.3-6.9-11.5-15.8-12.5-26.6h-21.9v-3.6c10.3-1.9 18.6-6.5 24.9-13.7 6.3-7.2 10.2-15.8 11.7-25.6l26.2-7.7 2.5 23.3h47.3v3.6h-45.8c1.9 13.6 5.8 23.9 11.6 30.9 5.8 7 12.4 10.5 19.8 10.5 5.1 0 9.9-1.7 14.3-5.1 4.4-3.4 8.4-8.1 11.8-14.1l3.6 1.9c-4.7 8.3-10.6 15.2-17.7 20.6-7.1 5.4-15.5 8.2-25.1 8.2z" fill="#6b4d3e"/>
</svg>